{
  "asset": {
    "version": "2.0"
  },
  "buffers": [
    {
      "uri": "primes_surface.bin",
      "byteLength": 61724
    }
  ],
  "bufferViews": [
    {
      "buffer": 0,
      "byteOffset": 0,
      "byteLength": 61596,
      "target": 34962
    },
    {
      "buffer": 0,
      "byteOffset": 61596,
      "byteLength": 128,
      "target": 34963
    }
  ],
  "accessors": [
    {
      "bufferView": 0,
      "byteOffset": 0,
      "componentType": 5126,
      "count": 5133,
      "type": "VEC3",
      "min": [
        -18.0,
        -18.0,
        -18.0
      ],
      "max": [
        18.0,
        18.0,
        18.0
      ]
    },
    {
      "bufferView": 1,
      "byteOffset": 0,
      "componentType": 5125,
      "count": 32,
      "type": "SCALAR"
    }
  ],
  "meshes": [
    {
      "primitives": [
        {
          "attributes": {
            "POSITION": 0
          },
          "mode": 0
        },
        {
          "attributes": {
            "POSITION": 0
          },
          "indices": 1,
          "mode": 1
        }
      ]
    }
  ],
  "nodes": [
    {
      "mesh": 0
    }
  ],
  "scenes": [
    {
      "nodes": [
        0
      ]
    }
  ],
  "scene": 0
}